<svg xmlns="http://www.w3.org/2000/svg" width="800" height="600" viewBox="0 0 800 600"><rect width="100%" height="100%" fill="#2563eb"/><path fill="#ffffff" d="M181.84 290.55h12.06q4.44 0 7.74-1.11t5.49-3.18 3.27-5.04 1.08-6.63q0-3.48-1.08-6.3t-3.24-4.8-5.46-3.03-7.8-1.05h-12.06zm-16.14-43.62h28.2q8.7 0 15.06 2.04t10.5 5.7 6.15 8.76 2.01 11.16q0 6.3-2.1 11.55t-6.3 9.03-10.53 5.88-14.79 2.1h-12.06v30.54H165.7zm85.02 28.92.9 6.96q2.88-5.52 6.84-8.67t9.36-3.15q4.26 0 6.84 1.86l-.96 11.1q-.3 1.08-.87 1.53t-1.53.45q-.9 0-2.67-.3t-3.45-.3q-2.46 0-4.38.72t-3.45 2.07-2.7 3.27-2.19 4.38v37.92h-14.82v-61.56h8.7q2.28 0 3.18.81t1.2 2.91m58.92-4.68q6.84 0 12.45 2.22t9.6 6.3 6.15 9.96 2.16 13.14q0 7.32-2.16 13.2t-6.15 10.02-9.6 6.36-12.45 2.22q-6.9 0-12.54-2.22t-9.63-6.36-6.18-10.02-2.19-13.2q0-7.26 2.19-13.14t6.18-9.96 9.63-6.3 12.54-2.22m0 52.02q7.68 0 11.37-5.16t3.69-15.12-3.69-15.18-11.37-5.22q-7.8 0-11.55 5.25t-3.75 15.15 3.75 15.09 11.55 5.19m42.18-51.06h14.88v63.66q0 4.02-1.05 7.56t-3.36 6.21-6.06 4.2-9.15 1.53q-2.1 0-3.9-.27t-3.72-.87l.54-7.98q.18-1.2.96-1.53t3-.33 3.75-.45 2.43-1.44 1.29-2.61.39-4.02zm16.92-17.94q0 1.92-.78 3.6t-2.07 2.94-3.06 2.01-3.75.75q-1.92 0-3.6-.75t-2.94-2.01-2.01-2.94-.75-3.6q0-1.98.75-3.72t2.01-3 2.94-2.01 3.6-.75q1.98 0 3.75.75t3.06 2.01 2.07 3 .78 3.72m24.78 41.64h27.96q0-2.88-.81-5.43t-2.43-4.47-4.11-3.03-5.79-1.11q-6.42 0-10.11 3.66t-4.71 10.38m37.8 8.94h-38.1q.36 4.74 1.68 8.19t3.48 5.7 5.13 3.36 6.57 1.11 6.21-.84 4.56-1.86 3.42-1.86 2.85-.84q1.86 0 2.76 1.38l4.26 5.4q-2.46 2.88-5.52 4.83t-6.39 3.12-6.78 1.65-6.69.48q-6.42 0-11.94-2.13t-9.6-6.3-6.42-10.32-2.34-14.25q0-6.3 2.04-11.85t5.85-9.66 9.3-6.51 12.39-2.4q5.82 0 10.74 1.86t8.46 5.43 5.55 8.76 2.01 11.85q0 3.36-.72 4.53t-2.76 1.17m62.58-25.02-3.9 5.4q-.66.84-1.29 1.32t-1.83.48q-1.14 0-2.22-.69t-2.58-1.56-3.57-1.56-5.13-.69q-3.9 0-6.84 1.41t-4.89 4.05-2.91 6.39-.96 8.49q0 4.92 1.05 8.76t3.03 6.45 4.8 3.96 6.36 1.35 5.73-.87 3.69-1.92 2.61-1.92 2.49-.87q1.8 0 2.7 1.38l4.26 5.4q-2.46 2.88-5.34 4.83t-5.97 3.12-6.36 1.65-6.51.48q-5.7 0-10.74-2.13t-8.82-6.21-5.97-9.99-2.19-13.47q0-6.78 1.95-12.57t5.73-10.02 9.36-6.63 12.84-2.4q6.9 0 12.09 2.22t9.33 6.36m30.36 54.9q-8.04 0-12.33-4.53t-4.29-12.51v-34.38h-6.3q-1.2 0-2.04-.78t-.84-2.34v-5.88l9.9-1.62 3.12-16.8q.3-1.2 1.14-1.86t2.16-.66h7.68v19.38h16.44v10.56h-16.44v33.36q0 2.88 1.41 4.5t3.87 1.62q1.38 0 2.31-.33t1.62-.69 1.23-.69 1.08-.33q.66 0 1.08.33t.9.99l4.44 7.2q-3.24 2.7-7.44 4.08t-8.7 1.38m82.56-14.76h22.26q2.4 0 3.81 1.35t1.41 3.57v8.88h-59.52v-4.92q0-1.5.63-3.15t2.01-2.97l26.34-26.4q3.3-3.36 5.91-6.42t4.35-6.06 2.67-6.09.93-6.51q0-3.12-.9-5.49t-2.55-3.99-3.96-2.43-5.19-.81q-2.64 0-4.89.75t-3.99 2.1-2.94 3.15-1.8 3.96q-1.02 2.76-2.64 3.66t-4.68.42l-7.8-1.38q.9-6.24 3.48-10.95t6.45-7.86 8.88-4.74 10.77-1.59q6 0 10.98 1.77t8.52 5.01 5.52 7.8 1.98 10.14q0 4.8-1.41 8.88t-3.78 7.8-5.55 7.2-6.66 7.08l-19.56 19.98q2.82-.84 5.61-1.29t5.31-.45"/></svg>